<?xml version="1.0" encoding="UTF-8" standalone="no"?>
<!-- Created with Inkscape (http://www.inkscape.org/) -->

<svg
   xmlns:dc="http://purl.org/dc/elements/1.1/"
   xmlns:cc="http://creativecommons.org/ns#"
   xmlns:rdf="http://www.w3.org/1999/02/22-rdf-syntax-ns#"
   xmlns:svg="http://www.w3.org/2000/svg"
   xmlns="http://www.w3.org/2000/svg"
   xmlns:sodipodi="http://sodipodi.sourceforge.net/DTD/sodipodi-0.dtd"
   xmlns:inkscape="http://www.inkscape.org/namespaces/inkscape"
   width="1024"
   height="512"
   id="svg2"
   version="1.1"
   inkscape:version="0.48.2 r9819"
   sodipodi:docname="collision.svg"
   inkscape:export-filename="/home/martin/proj/LD25/content/assets/collision.png"
   inkscape:export-xdpi="90"
   inkscape:export-ydpi="90">
  <defs
     id="defs4" />
  <sodipodi:namedview
     id="base"
     pagecolor="#ffffff"
     bordercolor="#666666"
     borderopacity="1.0"
     inkscape:pageopacity="0.0"
     inkscape:pageshadow="2"
     inkscape:zoom="1"
     inkscape:cx="477.86929"
     inkscape:cy="198.77247"
     inkscape:document-units="px"
     inkscape:current-layer="layer1"
     showgrid="false"
     inkscape:snap-global="true"
     inkscape:window-width="1918"
     inkscape:window-height="1026"
     inkscape:window-x="1600"
     inkscape:window-y="0"
     inkscape:window-maximized="0"
     fit-margin-top="0"
     fit-margin-left="0"
     fit-margin-right="0"
     fit-margin-bottom="0">
    <inkscape:grid
       type="xygrid"
       id="grid3782"
       empspacing="5"
       visible="true"
       enabled="true"
       snapvisiblegridlinesonly="true" />
  </sodipodi:namedview>
  <metadata
     id="metadata7">
    <rdf:RDF>
      <cc:Work
         rdf:about="">
        <dc:format>image/svg+xml</dc:format>
        <dc:type
           rdf:resource="http://purl.org/dc/dcmitype/StillImage" />
        <dc:title></dc:title>
      </cc:Work>
    </rdf:RDF>
  </metadata>
  <g
     inkscape:groupmode="layer"
     id="layer2"
     inkscape:label="buildings"
     transform="translate(27.77262,-103.62667)">
    <rect
       style="fill:#3e0000;fill-opacity:1;stroke:#540000;stroke-width:2.66199063999999996;stroke-miterlimit:4;stroke-opacity:1;stroke-dasharray:none"
       id="rect3760"
       width="96.31266"
       height="205.40913"
       x="832.51654"
       y="356.48322" />
    <rect
       style="fill:#3e0000;fill-opacity:1;stroke:#540000;stroke-width:2;stroke-miterlimit:4;stroke-opacity:1;stroke-dasharray:none"
       id="rect3762"
       width="11.364215"
       height="10.606606"
       x="841.27692"
       y="387.31467" />
    <rect
       y="414.92126"
       x="908.36957"
       height="10.606606"
       width="11.364215"
       id="rect3784"
       style="fill:#3e0000;fill-opacity:1;stroke:#540000;stroke-width:2;stroke-miterlimit:4;stroke-opacity:1;stroke-dasharray:none" />
    <rect
       y="470.13449"
       x="863.64111"
       height="10.606606"
       width="11.364215"
       id="rect3788"
       style="fill:#3e0000;fill-opacity:1;stroke:#540000;stroke-width:2;stroke-miterlimit:4;stroke-opacity:1;stroke-dasharray:none" />
    <rect
       style="fill:#3e0000;fill-opacity:1;stroke:#540000;stroke-width:2;stroke-miterlimit:4;stroke-opacity:1;stroke-dasharray:none"
       id="rect3790"
       width="11.364215"
       height="10.606606"
       x="863.64111"
       y="497.74109" />
    <rect
       y="526.10577"
       x="864.39917"
       height="23.232595"
       width="16.03583"
       id="rect3792"
       style="fill:#3e0000;fill-opacity:1;stroke:#540000;stroke-width:3.51614380000000004;stroke-miterlimit:4;stroke-opacity:1;stroke-dasharray:none" />
    <rect
       style="fill:#3e0000;fill-opacity:1;stroke:#540000;stroke-width:2;stroke-miterlimit:4;stroke-opacity:1;stroke-dasharray:none"
       id="rect3796"
       width="11.364215"
       height="10.606606"
       x="886.00537"
       y="414.92126" />
    <rect
       style="fill:#3e0000;fill-opacity:1;stroke:#540000;stroke-width:2;stroke-miterlimit:4;stroke-opacity:1;stroke-dasharray:none"
       id="rect3800"
       width="11.364215"
       height="10.606606"
       x="841.27692"
       y="470.13449" />
    <rect
       y="497.74109"
       x="841.27692"
       height="10.606606"
       width="11.364215"
       id="rect3802"
       style="fill:#3e0000;fill-opacity:1;stroke:#540000;stroke-width:2;stroke-miterlimit:4;stroke-opacity:1;stroke-dasharray:none" />
    <rect
       style="fill:#3e0000;fill-opacity:1;stroke:#540000;stroke-width:2;stroke-miterlimit:4;stroke-opacity:1;stroke-dasharray:none"
       id="rect3804"
       width="11.364215"
       height="10.606606"
       x="841.27692"
       y="525.34772" />
    <rect
       y="414.92126"
       x="863.64111"
       height="10.606606"
       width="11.364215"
       id="rect3808"
       style="fill:#3e0000;fill-opacity:1;stroke:#540000;stroke-width:2;stroke-miterlimit:4;stroke-opacity:1;stroke-dasharray:none" />
    <rect
       style="fill:#3e0000;fill-opacity:1;stroke:#540000;stroke-width:2;stroke-miterlimit:4;stroke-opacity:1;stroke-dasharray:none"
       id="rect3810"
       width="11.364215"
       height="10.606606"
       x="908.36957"
       y="525.34772" />
    <rect
       y="442.52789"
       x="908.36957"
       height="10.606606"
       width="11.364215"
       id="rect3812"
       style="fill:#3e0000;fill-opacity:1;stroke:#540000;stroke-width:2;stroke-miterlimit:4;stroke-opacity:1;stroke-dasharray:none" />
    <rect
       style="fill:#3e0000;fill-opacity:1;stroke:#540000;stroke-width:2;stroke-miterlimit:4;stroke-opacity:1;stroke-dasharray:none"
       id="rect3814"
       width="11.364215"
       height="10.606606"
       x="908.36957"
       y="470.13449" />
    <rect
       y="497.74109"
       x="908.36957"
       height="10.606606"
       width="11.364215"
       id="rect3816"
       style="fill:#3e0000;fill-opacity:1;stroke:#540000;stroke-width:2;stroke-miterlimit:4;stroke-opacity:1;stroke-dasharray:none" />
    <rect
       style="fill:#3e0000;fill-opacity:1;stroke:#540000;stroke-width:2;stroke-miterlimit:4;stroke-opacity:1;stroke-dasharray:none"
       id="rect3820"
       width="11.364215"
       height="10.606606"
       x="841.27692"
       y="414.92126" />
    <rect
       y="526.08813"
       x="880.93689"
       height="23.267832"
       width="15.692257"
       id="rect3822"
       style="fill:#3e0000;fill-opacity:1;stroke:#540000;stroke-width:3.48090935000000012;stroke-miterlimit:4;stroke-opacity:1;stroke-dasharray:none" />
    <rect
       style="fill:#3e0000;fill-opacity:1;stroke:#540000;stroke-width:2;stroke-miterlimit:4;stroke-opacity:1;stroke-dasharray:none"
       id="rect3824"
       width="11.364215"
       height="10.606606"
       x="886.00537"
       y="442.52789" />
    <rect
       y="470.13449"
       x="886.00537"
       height="10.606606"
       width="11.364215"
       id="rect3826"
       style="fill:#3e0000;fill-opacity:1;stroke:#540000;stroke-width:2;stroke-miterlimit:4;stroke-opacity:1;stroke-dasharray:none" />
    <rect
       style="fill:#3e0000;fill-opacity:1;stroke:#540000;stroke-width:2;stroke-miterlimit:4;stroke-opacity:1;stroke-dasharray:none"
       id="rect3828"
       width="11.364215"
       height="10.606606"
       x="886.00537"
       y="497.74109" />
    <rect
       y="387.31467"
       x="863.64111"
       height="10.606606"
       width="11.364215"
       id="rect3832"
       style="fill:#3e0000;fill-opacity:1;stroke:#540000;stroke-width:2;stroke-miterlimit:4;stroke-opacity:1;stroke-dasharray:none" />
    <rect
       style="fill:#3e0000;fill-opacity:1;stroke:#540000;stroke-width:2;stroke-miterlimit:4;stroke-opacity:1;stroke-dasharray:none"
       id="rect3834"
       width="11.364215"
       height="10.606606"
       x="863.64111"
       y="442.52789" />
    <rect
       y="387.31467"
       x="886.00537"
       height="10.606606"
       width="11.364215"
       id="rect3836"
       style="fill:#3e0000;fill-opacity:1;stroke:#540000;stroke-width:2;stroke-miterlimit:4;stroke-opacity:1;stroke-dasharray:none" />
    <rect
       style="fill:#3e0000;fill-opacity:1;stroke:#540000;stroke-width:2;stroke-miterlimit:4;stroke-opacity:1;stroke-dasharray:none"
       id="rect3838"
       width="11.364215"
       height="10.606606"
       x="908.36957"
       y="387.31467" />
    <rect
       y="442.52789"
       x="841.27692"
       height="10.606606"
       width="11.364215"
       id="rect3840"
       style="fill:#3e0000;fill-opacity:1;stroke:#540000;stroke-width:2;stroke-miterlimit:4;stroke-opacity:1;stroke-dasharray:none" />
    <rect
       style="opacity:0.98000003999999996;fill:#3e0000;fill-opacity:1;stroke:#540000;stroke-width:2;stroke-miterlimit:4;stroke-opacity:1;stroke-dasharray:none;display:inline"
       id="rect3867"
       width="51.16127"
       height="60.463318"
       x="683.54346"
       y="459.52667" />
    <rect
       y="464.97885"
       x="690.07025"
       height="10.606606"
       width="11.364215"
       id="rect3840-8"
       style="fill:#3e0000;fill-opacity:1;stroke:#540000;stroke-width:2;stroke-miterlimit:4;stroke-opacity:1;stroke-dasharray:none" />
    <rect
       y="478.05984"
       x="703.73273"
       height="10.606606"
       width="11.364215"
       id="rect3840-3"
       style="fill:#3e0000;fill-opacity:1;stroke:#540000;stroke-width:2;stroke-miterlimit:4;stroke-opacity:1;stroke-dasharray:none" />
    <path
       style="fill:#3e0000;stroke:#540000;stroke-width:1px;stroke-linecap:butt;stroke-linejoin:miter;stroke-opacity:1;fill-opacity:1"
       d="m 705.03031,356.19447 32.06552,-14.79947 31.65442,14.79947 z"
       id="path3912"
       inkscape:connector-curvature="0"
       transform="translate(-27.77262,103.62667)" />
    <rect
       style="fill:#3e0000;fill-opacity:1;stroke:#540000;stroke-width:2;stroke-miterlimit:4;stroke-opacity:1;stroke-dasharray:none"
       id="rect3914"
       width="34.532097"
       height="28.776747"
       x="259.81293"
       y="433.89169"
       transform="translate(-27.77262,103.62667)" />
    <path
       inkscape:connector-curvature="0"
       id="path3916"
       d="m 227.72077,537.92945 21.95409,-14.79947 21.67263,14.79947 z"
       style="fill:#3e0000;stroke:#540000;stroke-width:0.82744401999999984px;stroke-linecap:butt;stroke-linejoin:miter;stroke-opacity:1;fill-opacity:1" />
    <rect
       y="549.08435"
       x="254.65794"
       height="28.776747"
       width="34.532097"
       id="rect3918"
       style="fill:#3e0000;fill-opacity:1;stroke:#540000;stroke-width:2;stroke-miterlimit:4;stroke-opacity:1;stroke-dasharray:none"
       transform="matrix(0.99854753,-0.05387787,0.05387787,0.99854753,0,0)" />
    <path
       style="fill:#3e0000;stroke:#540000;stroke-width:0.82744401999999984px;stroke-linecap:butt;stroke-linejoin:miter;stroke-opacity:1;fill-opacity:1"
       d="m 279.58044,535.20957 21.12484,-15.96082 22.43851,13.6103 z"
       id="path3920"
       inkscape:connector-curvature="0" />
    <rect
       y="534.64069"
       x="332.5665"
       height="28.776747"
       width="51.069447"
       id="rect3922"
       style="fill:#3e0000;fill-opacity:1;stroke:#540000;stroke-width:2.43219900000000022;stroke-miterlimit:4;stroke-opacity:1;stroke-dasharray:none" />
    <path
       style="fill:#3e0000;stroke:#540000;stroke-width:1.00625420000000010px;stroke-linecap:butt;stroke-linejoin:miter;stroke-opacity:1;fill-opacity:1"
       d="m 326.17836,535.05178 32.46786,-14.79947 32.0516,14.79947 z"
       id="path3924"
       inkscape:connector-curvature="0" />
    <path
       transform="translate(-27.77262,103.62667)"
       style="fill:#3e0000;fill-opacity:1;stroke:#540000;stroke-width:2;stroke-miterlimit:4;stroke-opacity:1"
       d="m 543.05836,397.30412 20.1437,13.15508 7.39973,-13.56618 26.31017,13.56618 7.81083,-13.56618 28.36565,13.56618 6.16645,-13.97728 22.1992,13.97728 0,67.83091 -124.56218,0 -0.68102,-67.42125 z"
       id="rect3926"
       inkscape:connector-curvature="0"
       sodipodi:nodetypes="cccccccccccc" />
    <rect
       y="534.68164"
       x="519.05884"
       height="10.606606"
       width="29.255854"
       id="rect3840-2"
       style="fill:#3e0000;fill-opacity:1;stroke:#540000;stroke-width:3.20897745999999984;stroke-miterlimit:4;stroke-opacity:1;stroke-dasharray:none" />
    <rect
       style="fill:#3e0000;fill-opacity:1;stroke:#540000;stroke-width:3.20897745999999984;stroke-miterlimit:4;stroke-opacity:1;stroke-dasharray:none"
       id="rect3947"
       width="29.255854"
       height="10.606606"
       x="593.05884"
       y="534.68164" />
    <rect
       y="534.68164"
       x="555.6402"
       height="10.606606"
       width="29.255854"
       id="rect3949"
       style="fill:#3e0000;fill-opacity:1;stroke:#540000;stroke-width:3.20897745999999984;stroke-miterlimit:4;stroke-opacity:1;stroke-dasharray:none" />
    <path
       style="fill:#3e0000;fill-opacity:1;stroke:#540000;stroke-width:1.22148323000000003;stroke-miterlimit:4;stroke-opacity:1"
       d="M 481.15625 393.375 C 474.91854 393.375 469.90625 400.11306 469.90625 408.5 L 469.90625 409 C 467.88236 405.5786 464.4697 403.34375 460.59375 403.34375 C 454.35605 403.34375 449.34375 409.11404 449.34375 416.3125 L 449.34375 455.8125 C 449.34375 463.01096 454.35605 468.78125 460.59375 468.78125 C 465.26281 468.78125 469.25836 465.55824 470.96875 460.90625 C 472.75901 466.06643 476.62732 469.65625 481.15625 469.65625 C 485.69634 469.65625 489.59071 466.05582 491.375 460.875 C 492.87017 466.10705 497.05373 469.84375 502.03125 469.84375 C 508.26895 469.84375 513.28125 463.97127 513.28125 456.65625 L 513.28125 416.53125 C 513.28125 409.21622 508.26895 403.34375 502.03125 403.34375 C 497.93335 403.34375 494.37546 405.86964 492.40625 409.6875 L 492.40625 408.5 C 492.40625 400.11306 487.39395 393.375 481.15625 393.375 z "
       transform="translate(-27.77262,103.62667)"
       id="rect3951" />
    <rect
       style="fill:#3e0000;fill-opacity:1;stroke:#540000;stroke-width:2;stroke-miterlimit:4;stroke-opacity:1;stroke-dasharray:none"
       id="rect3966"
       width="56.935448"
       height="125.68768"
       x="783.13098"
       y="306.81754"
       transform="translate(-27.77262,103.62667)" />
    <rect
       style="fill:#3e0000;fill-opacity:1;stroke:#540000;stroke-width:2;stroke-miterlimit:4;stroke-opacity:1;stroke-dasharray:none"
       id="rect3968"
       width="63.918095"
       height="6.176959"
       x="778.83392"
       y="302.78909"
       transform="translate(-27.77262,103.62667)" />
    <rect
       style="fill:#3e0000;fill-opacity:1;stroke:#540000;stroke-width:1.37476814000000003;stroke-miterlimit:4;stroke-opacity:1;stroke-dasharray:none"
       id="rect3970"
       width="7.8115802"
       height="7.2908115"
       x="798.66272"
       y="489.4942" />
    <rect
       y="465.82861"
       x="798.66272"
       height="7.2908115"
       width="7.8115802"
       id="rect3972"
       style="fill:#3e0000;fill-opacity:1;stroke:#540000;stroke-width:1.37476814000000003;stroke-miterlimit:4;stroke-opacity:1;stroke-dasharray:none" />
    <rect
       style="fill:#3e0000;fill-opacity:1;stroke:#540000;stroke-width:1.37476814000000003;stroke-miterlimit:4;stroke-opacity:1;stroke-dasharray:none"
       id="rect3974"
       width="7.8115802"
       height="7.2908115"
       x="780.47638"
       y="465.82861" />
    <rect
       y="465.82861"
       x="762.29004"
       height="7.2908115"
       width="7.8115802"
       id="rect3976"
       style="fill:#3e0000;fill-opacity:1;stroke:#540000;stroke-width:1.37476814000000003;stroke-miterlimit:4;stroke-opacity:1;stroke-dasharray:none" />
    <rect
       style="fill:#3e0000;fill-opacity:1;stroke:#540000;stroke-width:1.37476814000000003;stroke-miterlimit:4;stroke-opacity:1;stroke-dasharray:none"
       id="rect3978"
       width="7.8115802"
       height="7.2908115"
       x="798.66272"
       y="442.16306" />
    <rect
       y="442.16306"
       x="780.47638"
       height="7.2908115"
       width="7.8115802"
       id="rect3980"
       style="fill:#3e0000;fill-opacity:1;stroke:#540000;stroke-width:1.37476814000000003;stroke-miterlimit:4;stroke-opacity:1;stroke-dasharray:none" />
    <rect
       style="fill:#3e0000;fill-opacity:1;stroke:#540000;stroke-width:1.37476814000000003;stroke-miterlimit:4;stroke-opacity:1;stroke-dasharray:none"
       id="rect3982"
       width="7.8115802"
       height="7.2908115"
       x="762.29004"
       y="442.16306" />
    <rect
       y="418.49747"
       x="798.66272"
       height="7.2908115"
       width="7.8115802"
       id="rect3984"
       style="fill:#3e0000;fill-opacity:1;stroke:#540000;stroke-width:1.37476814000000003;stroke-miterlimit:4;stroke-opacity:1;stroke-dasharray:none" />
    <rect
       style="fill:#3e0000;fill-opacity:1;stroke:#540000;stroke-width:1.37476814000000003;stroke-miterlimit:4;stroke-opacity:1;stroke-dasharray:none"
       id="rect3986"
       width="7.8115802"
       height="7.2908115"
       x="780.47638"
       y="418.49747" />
    <rect
       y="418.49747"
       x="762.29004"
       height="7.2908115"
       width="7.8115802"
       id="rect3988"
       style="fill:#3e0000;fill-opacity:1;stroke:#540000;stroke-width:1.37476814000000003;stroke-miterlimit:4;stroke-opacity:1;stroke-dasharray:none" />
    <rect
       y="489.4942"
       x="780.47638"
       height="7.2908115"
       width="7.8115802"
       id="rect3990"
       style="fill:#3e0000;fill-opacity:1;stroke:#540000;stroke-width:1.37476814000000003;stroke-miterlimit:4;stroke-opacity:1;stroke-dasharray:none" />
    <rect
       style="fill:#3e0000;fill-opacity:1;stroke:#540000;stroke-width:1.37476814000000003;stroke-miterlimit:4;stroke-opacity:1;stroke-dasharray:none"
       id="rect3992"
       width="7.8115802"
       height="7.2908115"
       x="762.29004"
       y="489.4942" />
    <path
       style="fill:#3e0000;fill-opacity:1;stroke:#540000;stroke-opacity:1"
       d="m 428.68786,509.20083 c 0.8026,0.12214 1.70419,0.61165 1.94709,1.29158 0.25917,0.72547 -0.28642,1.561 -0.81099,2.16701 -0.48677,0.56234 -1.2024,1.17257 -2.00893,1.17934 -0.97151,0.008 -2.08141,-0.59386 -2.45064,-1.37964 -0.3743,-0.79653 -0.024,-1.88738 0.64204,-2.52173 0.63361,-0.60343 1.75843,-0.877 2.68143,-0.73656 z"
       id="rect3994"
       inkscape:connector-curvature="0"
       sodipodi:nodetypes="aaaaaaa" />
    <path
       sodipodi:nodetypes="aaaaaaa"
       inkscape:connector-curvature="0"
       id="path3997"
       d="m 451.94257,497.85545 c 0.88106,-0.0193 2.14706,0.0595 2.49719,0.86822 0.51141,1.18128 -0.70857,2.57223 -1.57131,3.52755 -0.85984,0.95211 -2.05614,1.95545 -3.33841,1.91508 -0.96929,-0.0305 -2.0969,-0.69186 -2.42751,-1.60354 -0.37483,-1.03359 0.20428,-2.3489 0.94709,-3.15948 0.94347,-1.02954 2.49683,-1.51723 3.89295,-1.54783 z"
       style="fill:#3e0000;fill-opacity:1;stroke:#540000;stroke-opacity:1" />
    <path
       sodipodi:nodetypes="aaaaaaa"
       inkscape:connector-curvature="0"
       id="path4001"
       d="m 472.40661,507.95083 c 0.72183,0.0951 1.62367,0.42438 1.88459,1.10408 0.29514,0.76884 -0.18632,1.75269 -0.74849,2.35451 -0.53729,0.57519 -1.41063,0.82164 -2.19643,0.86684 -0.97328,0.056 -2.39811,0.12151 -2.82564,-0.75464 -0.45017,-0.92255 0.43178,-2.15851 1.20454,-2.83423 0.69778,-0.61015 1.76245,-0.85758 2.68143,-0.73656 z"
       style="fill:#3e0000;fill-opacity:1;stroke:#540000;stroke-opacity:1" />
  </g>
  <g
     inkscape:label="ground"
     inkscape:groupmode="layer"
     id="layer1"
     transform="translate(27.77262,-643.98885)"
     style="display:inline">
    <path
       style="fill:#003700;fill-opacity:1;stroke:none"
       d="m -59.091373,1085.5801 c 106.279658,29.3304 193.494533,20.7249 290.483123,18.2834 66.25887,-1.668 131.31147,-24.2527 197.56708,-22.4596 60.60768,1.6402 120.50878,44.9086 179.34984,30.2897 28.88843,-7.1772 44.0834,-41.3384 70.85505,-54.3511 25.31887,-12.3067 54.05625,-25.6094 81.81733,-20.9382 31.54905,5.3086 49.99939,42.0029 80.07379,52.9141 61.714,22.3902 180.80296,-41.8961 195.71346,22.0384 15.8797,68.0908 -108.95897,95.3676 -176.55,113.2554 -103.0182,27.2636 -212.74536,-13.2337 -319.24652,-16.9157 -66.57702,-2.3017 -133.37071,1.4278 -199.82423,-3.2335 -58.78798,-4.1236 -116.53095,-20.2761 -175.44248,-21.8453 -45.0828,-1.2008 -91.0608,19.8827 -134.959152,9.5465 -35.85371,-8.4419 -77.829455,-23.6606 -95.168324,-56.1586 -8.711163,-16.3272 2.203926,-36.9471 3.188176,-55.4255"
       id="path2985"
       inkscape:connector-curvature="0"
       sodipodi:nodetypes="caaaaaaaaaaaaac" />
  </g>
</svg>
